<?xml version="1.0" encoding="iso-8859-1"?>
<svg version="1.1" xmlns="http://www.w3.org/2000/svg" xmlns:xlink="http://www.w3.org/1999/xlink" x="0px" y="0px"
	 viewBox="0 0 476.759 476.759" style="enable-background:new 0 0 476.759 476.759;" xml:space="preserve">
	<path d="M470.855,430.196c6.233-9.35,7.65-21.25,3.683-31.733l-36.833-96.333c-1.983-4.817-5.383-9.35-9.067-12.75
		c3.4-6.517,5.1-14.167,5.1-22.1V79.146c0-26.067-20.4-47.6-46.467-47.6H89.205c-26.067,0-46.467,21.533-46.467,47.6V267.28
		c0,7.933,1.7,15.583,5.1,22.1c-3.683,3.4-7.083,7.933-8.783,12.75L2.221,398.463c-3.967,10.483-2.55,22.383,3.683,31.733
		s16.717,15.017,28.05,15.017h408.85C453.855,445.213,464.338,439.546,470.855,430.196z M76.738,79.146
		c0-7.367,5.1-13.6,12.467-13.6h298.067c7.367,0,12.467,6.233,12.467,13.6V267.28c0,6.233-3.4,10.767-9.35,13.6h-304.3
		c-5.95-2.833-9.35-7.083-9.35-13.6V79.146z M33.671,410.646l36.833-96.333h12.75c1.983,0.283,3.967,0.567,5.95,0.567h298.067
		c1.7,0,3.683-0.283,5.383-0.283h13.317l36.833,96.333l0,0L33.671,410.646z"/>
</svg>
