<svg height="512" viewBox="0 0 128 128" width="512" xmlns="http://www.w3.org/2000/svg"><g id="Circle_Grid" data-name="Circle Grid"><circle cx="64" cy="64" fill="rgba(37,124,193,0.6)" r="64"/></g><g id="icon"><path d="m35.214 75.565h57.329v9.945h-57.329z" fill="#4d5160"/><path d="m41.491 74.475h44.771v24.904h-44.771z" fill="#eeefee"/><path d="m30.565 85.429h4.65v.081h-4.65z" fill="#ccd0d2"/><path d="m92.544 85.429h4.65v.081h-4.65z" fill="#ccd0d2"/><path d="m35.331 39.081h57.336v19.529h-57.336z" fill="#4d5160"/><path d="m42.376 28.621h43.246v19.92h-43.246z" fill="#eeefee"/><path d="m100.966 48h-73.932a4.033 4.033 0 0 0 -4.034 4.034v29.441a4.033 4.033 0 0 0 4.034 4.034h8.18v-9.944h57.33v9.945h8.422a4.033 4.033 0 0 0 4.034-4.035v-29.441a4.033 4.033 0 0 0 -4.034-4.034z" fill="#62667c"/><g fill="#dbd8dd"><path d="m45.048 80.497h37.668v1.51h-37.668z"/><path d="m45.048 86.333h37.668v1.51h-37.668z"/><path d="m45.048 92.169h37.668v1.51h-37.668z"/></g><path d="m23.001 58.861h81.997v2.648h-81.997z" fill="#4d5160"/><path d="m32 53.545a1.788 1.788 0 1 1 -1.792-1.792 1.79 1.79 0 0 1 1.792 1.792z" fill="#ef5261"/><path d="m38.85 53.545a1.788 1.788 0 1 1 -1.792-1.792 1.79 1.79 0 0 1 1.792 1.792z" fill="#2cbfae"/></g></svg>