<?xml version="1.0" encoding="utf-8"?>
<svg version="1.1" id="printer" xmlns="http://www.w3.org/2000/svg" xmlns:xlink="http://www.w3.org/1999/xlink" x="0px" y="0px"
	 viewBox="0 0 184 188" enable-background="new 0 0 184 188" xml:space="preserve">
<g>
	<rect x="40" y="36" fill="none" width="4" height="20"/>
	<rect x="140" y="36" fill="none" width="4" height="20"/>
	<rect x="52" y="132" fill="none" width="80" height="48"/>
	<rect x="52" y="8" fill="none" width="80" height="48"/>
	<circle fill="none" cx="148" cy="88" r="4"/>
	<path fill="none" d="M163.992,64H152h-12H44H32H20.008C13.3867,64,8,69.3652,8,75.9608V152h36v-20H28v-8h16h96h16v8h-16v20h36
		V75.9608C176,69.3652,170.6131,64,163.992,64z M148,100c-6.6173,0-12-5.3828-12-12s5.3827-12,12-12c6.6171,0,12,5.3828,12,12
		S154.6171,100,148,100z"/>
	<path d="M184,75.9608C184,64.9552,175.0235,56,163.992,56H152V28h-12V0H44v28H32v28H20.008C8.9763,56,0,64.9552,0,75.9608V160h44
		v28h96v-28h44V75.9608z M144,36v20h-4V36H144z M52,8h80v48H52V8z M40,36h4v20h-4V36z M132,180H52v-48h80V180z M176,152h-36v-20h16
		v-8h-16H44H28v8h16v20H8V75.9608C8,69.3652,13.3867,64,20.008,64H32h12h96h12h11.992C170.6131,64,176,69.3652,176,75.9608V152z"/>
	<path d="M148,76c-6.6173,0-12,5.3828-12,12s5.3827,12,12,12c6.6171,0,12-5.3828,12-12S154.6171,76,148,76z M148,92
		c-2.2073,0-4-1.7928-4-4s1.7927-4,4-4c2.2071,0,4,1.7928,4,4S150.2071,92,148,92z"/>
</g>
</svg>
